HIERARCHY
ROOT Hips
{
	OFFSET 0.00000 0.00000 0.00000
	CHANNELS 6 Xposition Yposition Zposition Zrotation Yrotation Xrotation 
	JOINT LHipJoint
	{
		OFFSET 0 0 0
		CHANNELS 3 Zrotation Yrotation Xrotation
		JOINT LeftUpLeg
		{
			OFFSET 1.26600 -1.82114 0.91038
			CHANNELS 3 Zrotation Yrotation Xrotation
			JOINT LeftLeg
			{
				OFFSET 2.50076 -6.87080 0.00000
				CHANNELS 3 Zrotation Yrotation Xrotation
				JOINT LeftFoot
				{
					OFFSET 2.57364 -7.07102 0.00000
					CHANNELS 3 Zrotation Yrotation Xrotation
					JOINT LeftToeBase
					{
						OFFSET 0.13572 -0.37290 1.97004
						CHANNELS 3 Zrotation Yrotation Xrotation
						End Site
						{
							OFFSET 0.00000 -0.00000 1.01383
						}
					}
				}
			}
		}
	}
	JOINT RHipJoint
	{
		OFFSET 0 0 0
		CHANNELS 3 Zrotation Yrotation Xrotation
		JOINT RightUpLeg
		{
			OFFSET -1.20803 -1.82114 0.91038
			CHANNELS 3 Zrotation Yrotation Xrotation
			JOINT RightLeg
			{
				OFFSET -2.54916 -7.00377 0.00000
				CHANNELS 3 Zrotation Yrotation Xrotation
				JOINT RightFoot
				{
					OFFSET -2.56374 -7.04382 0.00000
					CHANNELS 3 Zrotation Yrotation Xrotation
					JOINT RightToeBase
					{
						OFFSET -0.23520 -0.64621 2.09921
						CHANNELS 3 Zrotation Yrotation Xrotation
						End Site
						{
							OFFSET -0.00000 -0.00000 1.10065
						}
					}
				}
			}
		}
	}
	JOINT LowerBack
	{
		OFFSET 0 0 0
		CHANNELS 3 Zrotation Yrotation Xrotation
		JOINT Spine
		{
			OFFSET 0.05492 2.10797 -0.12074
			CHANNELS 3 Zrotation Yrotation Xrotation
			JOINT Spine1
			{
				OFFSET 0.04577 2.11592 -0.04483
				CHANNELS 3 Zrotation Yrotation Xrotation
				JOINT Neck
				{
					OFFSET 0 0 0
					CHANNELS 3 Zrotation Yrotation Xrotation
					JOINT Neck1
					{
						OFFSET -0.10759 1.80167 0.15770
						CHANNELS 3 Zrotation Yrotation Xrotation
						JOINT Head
						{
							OFFSET 0.09237 1.77509 -0.40848
							CHANNELS 3 Zrotation Yrotation Xrotation
							End Site
							{
								OFFSET 0.03805 1.84093 -0.15754
							}
						}
					}
				}
				JOINT LeftShoulder
				{
					OFFSET 0 0 0
					CHANNELS 3 Zrotation Yrotation Xrotation
					JOINT LeftArm
					{
						OFFSET 3.42372 1.09575 -0.28209
						CHANNELS 3 Zrotation Yrotation Xrotation
						JOINT LeftForeArm
						{
							OFFSET 4.95681 -0.00000 0.00000
							CHANNELS 3 Zrotation Yrotation Xrotation
							JOINT LeftHand
							{
								OFFSET 3.40915 -0.00000 0.00000
								CHANNELS 3 Zrotation Yrotation Xrotation
								JOINT LeftFingerBase
								{
									OFFSET 0 0 0
									CHANNELS 3 Zrotation Yrotation Xrotation
									JOINT LeftHandIndex1
									{
										OFFSET 0.61640 -0.00000 0.00000
										CHANNELS 3 Zrotation Yrotation Xrotation
										End Site
										{
											OFFSET 0.49696 -0.00000 0.00000
										}
									}
								}
								JOINT LThumb
								{
									OFFSET 0 0 0
									CHANNELS 3 Zrotation Yrotation Xrotation
									End Site
									{
										OFFSET 0.50455 -0.00000 0.50455
									}
								}
							}
						}
					}
				}
				JOINT RightShoulder
				{
					OFFSET 0 0 0
					CHANNELS 3 Zrotation Yrotation Xrotation
					JOINT RightArm
					{
						OFFSET -3.24731 1.15872 -0.32221
						CHANNELS 3 Zrotation Yrotation Xrotation
						JOINT RightForeArm
						{
							OFFSET -5.35200 -0.00000 0.00000
							CHANNELS 3 Zrotation Yrotation Xrotation
							JOINT RightHand
							{
								OFFSET -3.43721 -0.00000 -0.00000
								CHANNELS 3 Zrotation Yrotation Xrotation
								JOINT RightFingerBase
								{
									OFFSET 0 0 0
									CHANNELS 3 Zrotation Yrotation Xrotation
									JOINT RightHandIndex1
									{
										OFFSET -0.72009 -0.00000 0.00000
										CHANNELS 3 Zrotation Yrotation Xrotation
										End Site
										{
											OFFSET -0.58056 -0.00000 0.00000
										}
									}
								}
								JOINT RThumb
								{
									OFFSET 0 0 0
									CHANNELS 3 Zrotation Yrotation Xrotation
									End Site
									{
										OFFSET -0.58942 -0.00000 0.58942
									}
								}
							}
						}
					}
				}
			}
		}
	}
}
MOTION
Frames: 15
Frame Time: .0083333
10.5676 17.9148 11.0830 -495.8900 -273.8530 215.6110 0.0000 0.0000 0.0000 -18.3003 -0.1132 14.9848 1.4497 7.6111 21.5388 -0.1625 -8.0083 -0.9664 0.4015 -4.0679 -11.2677 0.0000 0.0000 0.0000 9.6064 5.1518 -74.7596 -23.7188 -19.6651 100.9318 -0.2516 9.2543 -10.3098 -0.2102 -2.9519 8.1447 -2.4213 -1.0184 20.0018 3.7005 -1.0663 7.2214 5.5710 -0.3723 -3.2327 -9.0047 -3.2454 -12.5799 5.7159 -3.1872 32.1390 3.4189 -1.4187 13.1052 -0.0000 -0.0000 0.0000 -82.3882 -12.4024 32.0466 22.2720 -33.2831 -6.7345 -0.0000 0.0000 -5.0055 21.5565 17.4606 6.7600 -7.1250 0.0000 -0.0000 -6.2421 48.5650 -0.5509 -0.0000 -0.0000 0.0000 82.8334 0.6180 15.1350 -23.8909 35.0487 -7.6438 0.0000 -0.0000 -13.2116 -20.6916 12.8770 -4.8115 7.1250 -0.0000 -0.0000 4.5606 -16.2760 3.1096
10.6760 17.9329 11.1106 -494.4770 -273.8410 217.3070 0.0000 0.0000 0.0000 -17.9878 0.0444 15.4527 1.3501 7.3558 20.7738 -0.1804 -8.2320 -0.5899 0.2797 -3.4015 -9.3986 0.0000 0.0000 0.0000 9.8210 5.4732 -74.5280 -23.8279 -19.6450 101.2560 -0.2761 10.1530 -10.9910 -0.3964 -4.0425 11.1962 -2.1867 -0.9201 20.0415 3.6944 -0.8991 7.1209 5.3947 -0.2842 -3.3870 -8.9797 -3.3667 -12.6722 5.8253 -3.4002 32.1347 3.4260 -1.4944 13.1449 -0.0000 0.0000 0.0000 -82.5008 -12.1354 32.0530 22.2351 -33.2417 -6.7143 -0.0000 0.0000 -5.0161 21.4597 17.4392 6.7190 -7.1250 0.0000 -0.0000 -6.3296 48.5281 -0.5529 -0.0000 0.0000 0.0000 83.0576 0.3794 14.6490 -23.7035 34.8491 -7.5364 0.0000 -0.0000 -13.1085 -20.7517 12.4786 -4.6804 7.1250 -0.0000 -0.0000 4.5054 -16.6918 3.0310
10.7857 17.9420 11.1390 -492.7720 -273.9060 219.4150 0.0000 0.0000 0.0000 -17.6638 0.1089 15.9014 1.2360 7.0500 19.8637 -0.1905 -8.2713 -0.1611 0.3937 -4.0291 -11.1585 0.0000 0.0000 0.0000 10.2171 5.6534 -74.4870 -23.8550 -19.6399 101.3365 -0.2798 10.9585 -11.3847 -0.7345 -5.4753 15.2692 -1.8340 -0.9542 19.9807 3.6557 -0.8852 7.0294 5.1458 -0.2735 -3.4659 -8.9016 -3.3677 -12.8926 5.9586 -3.4573 32.1054 3.4550 -1.4935 13.1849 -0.0000 -0.0000 0.0000 -82.4806 -11.9265 31.8779 22.1552 -33.1520 -6.6705 -0.0000 0.0000 -5.5306 22.0412 17.6117 6.9838 -7.1250 0.0000 -0.0000 -5.8140 48.7975 -0.5463 -0.0000 -0.0000 0.0000 83.2617 0.3290 14.4558 -23.3312 34.4489 -7.3248 0.0000 -0.0000 -12.8331 -20.7755 12.6151 -4.7365 7.1250 -0.0000 -0.0000 4.4934 -16.5450 3.0372
10.8972 17.9490 11.1676 -495.8270 -273.7490 216.8100 0.0000 0.0000 0.0000 -17.8226 0.0978 16.2269 1.1383 6.7754 19.0518 -0.1942 -8.1469 0.4268 0.5293 -4.6622 -12.9475 0.0000 0.0000 0.0000 10.2863 5.6599 -74.5514 -23.8176 -19.6469 101.2253 -0.3487 11.0328 -12.2005 -0.7622 -5.5754 15.5573 -1.9010 -0.9686 19.9313 3.5632 -0.9317 6.9174 5.0951 -0.2977 -3.5568 -8.9741 -3.3337 -13.1053 6.0688 -3.4160 32.0614 3.5156 -1.4711 13.2115 0.0000 -0.0000 0.0000 -82.6085 -11.6683 31.4002 22.0581 -33.0427 -6.6175 -0.0000 0.0000 -6.2232 22.8264 17.7615 7.3167 -7.1250 0.0000 -0.0000 -5.0920 49.0771 -0.5132 0.0000 -0.0000 0.0000 83.3174 0.3276 14.5058 -22.9058 33.9856 -7.0856 0.0000 -0.0000 -12.6751 -20.8713 12.5881 -4.7503 7.1250 -0.0000 -0.0000 4.4261 -16.5647 2.9896
11.0088 17.9766 11.2016 -497.6960 -273.6440 215.5590 0.0000 0.0000 0.0000 -17.8534 -0.0042 16.3218 1.0487 6.5122 18.2780 -0.1910 -7.8939 1.1512 0.4740 -4.4157 -12.2492 0.0000 0.0000 0.0000 10.4823 5.7225 -74.7423 -23.7762 -19.6546 101.1024 -0.5075 10.3721 -13.6654 -0.3777 -3.9471 10.9280 -1.8417 -0.8952 19.8028 3.4416 -0.8519 6.6650 4.9122 -0.2586 -3.7747 -8.7437 -3.3734 -13.1131 6.0584 -3.5292 32.1099 3.4559 -1.4924 13.2382 -0.0000 -0.0000 0.0000 -82.6555 -11.1887 31.1660 21.9631 -32.9353 -6.5658 -0.0000 0.0000 -6.9404 22.4703 17.4279 7.0617 -7.1250 0.0000 -0.0000 -5.3557 48.6690 -0.4860 -0.0000 -0.0000 0.0000 83.6336 0.1109 14.2145 -22.5504 33.5934 -6.8879 0.0000 -0.0000 -12.5753 -21.0229 12.2764 -4.6717 7.1250 -0.0000 -0.0000 4.3102 -16.8809 2.8811
11.1207 18.0128 11.2374 -496.9310 -273.6180 217.1060 0.0000 0.0000 0.0000 -17.7122 -0.1969 16.4243 0.9325 6.1514 17.2242 -0.1740 -7.3930 2.1454 0.4808 -4.4464 -12.3359 0.0000 0.0000 0.0000 10.8478 5.8513 -74.9956 -23.7260 -19.6638 100.9530 -0.6959 9.4772 -15.3184 -0.0208 -0.9317 2.5609 -1.5247 -0.7873 19.5138 3.2946 -0.6834 6.3926 4.5301 -0.1772 -3.9439 -8.2745 -3.4595 -13.1781 6.0342 -3.7666 32.1892 3.3306 -1.5394 13.2947 -0.0000 0.0000 0.0000 -82.4431 -10.6546 31.3569 21.9262 -32.8935 -6.5457 -0.0000 0.0000 -7.9321 21.6032 16.9949 6.6022 -7.1250 0.0000 -0.0000 -6.0825 48.0825 -0.4642 -0.0000 0.0000 0.0000 84.1595 -0.0584 13.6020 -22.1285 33.1220 -6.6559 0.0000 -0.0000 -12.3341 -20.9531 12.4481 -4.7186 7.1250 -0.0000 -0.0000 4.3646 -16.7054 2.9344
11.2325 18.0784 11.2642 -497.8530 -273.5710 216.8290 0.0000 0.0000 0.0000 -17.7597 -0.4688 16.7910 0.8031 5.7195 15.9728 -0.1346 -6.5680 3.4715 0.4954 -4.5125 -12.5230 0.0000 0.0000 0.0000 11.0533 5.8714 -75.1046 -23.7096 -19.6668 100.9042 -0.6292 9.7011 -14.7150 -0.5939 -4.9336 13.7194 -1.2570 -0.7445 19.2993 3.2109 -0.5953 6.2509 4.2635 -0.1355 -3.9986 -8.1882 -3.5151 -13.3270 6.0624 -3.8768 32.0991 3.3056 -1.5740 13.2967 0.0000 0.0000 0.0000 -82.4578 -10.3091 31.4260 21.7937 -32.7431 -6.4739 -0.0000 0.0000 -9.0141 21.4848 17.1605 6.6242 -7.1250 0.0000 -0.0000 -6.2360 48.2393 -0.5001 0.0000 0.0000 0.0000 84.4161 -0.0275 13.1292 -21.6992 32.6354 -6.4229 0.0000 -0.0000 -12.0851 -20.6808 12.5542 -4.6907 7.1250 -0.0000 -0.0000 4.5570 -16.6184 3.0732
11.3446 18.1754 11.2872 -497.9320 -273.6410 217.3360 0.0000 0.0000 0.0000 -17.6291 -0.6572 17.1619 0.6752 5.2541 14.6348 -0.0744 -5.6051 5.0675 0.3934 -4.0274 -11.1537 0.0000 0.0000 0.0000 11.3775 5.9351 -75.0473 -23.6907 -19.6702 100.8480 -0.6698 9.8425 -15.1460 -1.0204 -6.4263 18.0266 -0.8695 -0.8177 19.1906 3.1735 -0.6308 6.0971 4.0087 -0.1530 -4.1115 -8.2140 -3.5015 -13.3912 6.0836 -3.8592 31.9744 3.3162 -1.5689 13.2566 -0.0000 0.0000 0.0000 -82.6207 -9.9973 31.0774 21.4709 -32.3739 -6.3002 -0.0000 0.0000 -9.9120 21.9039 17.5420 6.9099 -7.1250 0.0000 -0.0000 -5.9288 48.7032 -0.5433 -0.0000 0.0000 0.0000 84.5701 -0.0020 12.9506 -21.3073 32.1853 -6.2128 0.0000 -0.0000 -12.0803 -20.6182 12.4275 -4.6290 7.1250 -0.0000 -0.0000 4.5964 -16.7582 3.0859
11.4585 18.2682 11.3181 -495.5710 -273.8070 220.2830 0.0000 0.0000 0.0000 -17.1303 -0.4991 17.6079 0.5186 4.6156 12.8154 0.0027 -4.9848 7.2037 0.4951 -4.5114 -12.5200 0.0000 0.0000 0.0000 11.8948 6.1839 -74.6620 -23.5553 -19.6942 100.4461 -0.7589 10.0507 -16.0351 -1.2272 -7.0259 19.7922 -0.5270 -0.9428 19.1369 3.2657 -0.7323 5.9196 3.9356 -0.2031 -4.2708 -8.2385 -3.4261 -13.5840 6.0262 -3.7132 32.0639 3.3224 -1.5148 13.3227 -0.0000 -0.0000 0.0000 -83.0146 -9.5679 30.2673 21.1005 -31.9455 -6.1030 -0.0000 0.0000 -10.6981 21.9266 17.7865 7.0101 -7.1250 0.0000 -0.0000 -5.9682 48.9639 -0.5854 -0.0000 -0.0000 0.0000 84.5904 0.0816 12.9443 -20.7991 31.5931 -5.9443 0.0000 -0.0000 -11.9007 -21.0062 12.7690 -4.8510 7.1250 -0.0000 -0.0000 4.3391 -16.3602 2.9498
11.5740 18.3619 11.3521 -493.0560 -273.8220 223.3580 0.0000 0.0000 0.0000 -16.6940 -0.1642 18.3814 0.3394 3.7439 10.3572 0.1400 -4.3640 10.0203 0.6807 -5.2751 -14.6949 0.0000 0.0000 0.0000 12.2996 6.5531 -74.0923 -23.3420 -19.7301 99.8136 -0.8368 10.0323 -16.7379 -1.0384 -6.4811 18.1869 -0.3690 -1.0697 19.1015 3.3972 -0.8652 5.7911 4.0177 -0.2692 -4.3811 -8.2651 -3.2778 -13.9925 5.7477 -3.3718 32.2977 3.2753 -1.4039 13.4769 0.0000 0.0000 0.0000 -83.5882 -9.1593 29.2083 20.6477 -31.4148 -5.8652 -0.0000 0.0000 -11.4798 21.8842 18.1220 7.1216 -7.1250 0.0000 -0.0000 -6.0954 49.3102 -0.6500 0.0000 0.0000 0.0000 84.4301 0.3023 13.1699 -20.1768 30.8548 -5.6218 0.0000 -0.0000 -11.5022 -21.2832 13.1836 -5.0771 7.1250 -0.0000 -0.0000 4.1639 -15.8934 2.8721
11.6868 18.4734 11.3856 -493.2050 -273.5570 223.8390 0.0000 0.0000 0.0000 -16.5940 0.2683 19.3033 0.1736 2.6841 7.4004 0.3812 -3.2375 13.3060 0.6099 -4.9987 -13.9049 0.0000 0.0000 0.0000 12.2807 6.9211 -73.7172 -23.1845 -19.7551 99.3474 -0.8958 10.0958 -17.2698 -0.9349 -6.1591 17.2467 -0.3335 -1.1161 19.0424 3.2948 -0.9376 5.6325 3.9049 -0.3076 -4.5178 -8.0385 -3.0917 -14.2394 5.4646 -3.0581 32.3655 3.1721 -1.2771 13.5209 0.0000 -0.0000 0.0000 -83.8280 -8.8118 28.3578 20.0850 -30.7446 -5.5747 -0.0000 0.0000 -12.1055 21.9480 18.3969 7.2478 -7.1250 0.0000 -0.0000 -6.1059 49.6092 -0.6962 0.0000 -0.0000 0.0000 84.5261 0.4406 13.3292 -19.6407 30.2070 -5.3494 0.0000 -0.0000 -11.4055 -21.5390 13.1772 -5.1415 7.1250 -0.0000 -0.0000 3.9873 -15.8745 2.7514
11.8003 18.5981 11.4191 -495.9160 -273.3260 221.7160 0.0000 0.0000 0.0000 -16.4391 0.8369 21.0955 0.0231 0.9820 2.6994 0.8161 -1.4480 17.6479 0.5161 -4.6046 -12.7840 0.0000 0.0000 0.0000 12.1558 7.1308 -73.3009 -23.0673 -19.7729 99.0010 -0.9483 10.3677 -17.7708 -1.0354 -6.4720 18.1603 -0.2938 -1.1266 18.9898 3.1560 -0.9642 5.4769 3.7406 -0.3233 -4.6589 -7.9421 -2.9562 -14.2781 5.3494 -2.8520 32.2586 3.1369 -1.1921 13.4603 -0.0000 -0.0000 0.0000 -83.9732 -8.4100 27.9456 19.6362 -30.2016 -5.3471 -0.0000 0.0000 -12.8502 21.8633 19.2756 7.5454 -7.1250 0.0000 -0.0000 -6.4300 50.5172 -0.8774 -0.0000 -0.0000 0.0000 84.7283 0.4534 13.0315 -19.2898 29.7771 -5.1740 0.0000 -0.0000 -11.1841 -21.8486 13.0519 -5.1740 7.1250 -0.0000 -0.0000 3.7686 -15.9765 2.5914
11.9160 18.7308 11.4508 -495.1810 -273.3560 223.0640 0.0000 0.0000 0.0000 -16.0514 0.9643 21.7864 0.0000 0.0000 0.0000 1.3000 0.3507 21.4538 0.5175 -4.6108 -12.8017 0.0000 0.0000 0.0000 12.3494 7.4516 -72.5856 -22.8474 -19.8045 98.3514 -1.0048 10.6650 -18.2973 -1.0742 -6.5882 18.5010 -0.0019 -1.2196 18.8447 3.1627 -1.0399 5.3488 3.5963 -0.3635 -4.7213 -8.0765 -2.8730 -14.4116 5.3096 -2.6749 32.2114 3.1700 -1.1383 13.4562 0.0000 0.0000 0.0000 -84.1583 -7.9363 27.7493 19.2847 -29.7708 -5.1714 -0.0000 0.0000 -14.1534 22.0666 20.4650 8.0671 -7.1250 0.0000 -0.0000 -6.5808 51.7966 -1.1054 0.0000 0.0000 0.0000 84.8123 0.5151 12.7748 -18.9678 29.3786 -5.0150 0.0000 -0.0000 -10.6139 -21.5818 12.8908 -5.0431 7.1250 -0.0000 -0.0000 3.9459 -16.1749 2.6970
12.0302 18.8598 11.4846 -494.5180 -273.3100 224.4700 0.0000 0.0000 0.0000 -15.8936 0.6233 20.8937 0.0000 0.0000 0.0000 1.7147 2.3673 24.1238 0.4071 -4.0960 -11.3468 0.0000 0.0000 0.0000 12.4839 7.8510 -71.9074 -22.5302 -19.8458 97.4162 -1.0099 11.2926 -18.4620 -1.4273 -7.5545 21.3689 0.2327 -1.2211 18.5825 3.0469 -1.0249 5.1540 3.3314 -0.3625 -4.8003 -7.8679 -2.8661 -14.4878 5.2986 -2.7187 32.2174 3.1221 -1.1337 13.4739 0.0000 0.0000 0.0000 -84.0784 -7.4200 27.8558 18.8780 -29.2668 -4.9711 -0.0000 0.0000 -15.4315 22.5669 21.0145 8.4764 -7.1250 0.0000 -0.0000 -6.2492 52.4611 -1.1513 0.0000 0.0000 0.0000 85.2058 0.4937 12.2874 -18.6422 28.9716 -4.8563 0.0000 -0.0000 -10.0168 -20.7486 12.5962 -4.7229 7.1250 -0.0000 -0.0000 4.5114 -16.5675 3.0473
12.1408 18.9753 11.5217 -500.3870 -273.1160 219.3060 0.0000 0.0000 0.0000 -16.1089 0.1318 19.9744 0.0000 0.0000 0.0000 2.1716 5.1502 26.7415 0.1463 -2.4650 -6.7926 0.0000 0.0000 0.0000 12.5862 7.9385 -71.3883 -22.0803 -19.8959 96.0924 -0.9990 10.8605 -18.2869 -1.5772 -7.9236 22.4822 0.1486 -1.1583 18.3895 2.8212 -0.9931 4.9296 3.1299 -0.3528 -4.9431 -7.5157 -2.8611 -14.4292 5.2115 -2.7896 32.1439 3.0117 -1.1329 13.4256 -0.0000 -0.0000 0.0000 -84.0525 -6.8750 27.8760 18.4699 -28.7547 -4.7731 -0.0000 0.0000 -15.8939 22.6110 21.3872 8.6360 -7.1250 0.0000 -0.0000 -6.3233 52.8593 -1.2267 -0.0000 -0.0000 0.0000 85.6290 0.3239 11.6298 -18.4092 28.6779 -4.7440 0.0000 -0.0000 -9.5141 -20.0969 12.4194 -4.4993 7.1250 -0.0000 -0.0000 4.9582 -16.8141 3.3245
